# xmcd
# 
# Track frame offsets:
#     150
#     16168
#     33155
#     48225
#     61125
#     72063
#     85426
#     97725
#     109963
#     129778
#     142454
#     155609
#     168965
#     177664
#     192417
# 
# Disc length: 2751
# 
# Revision: 0
# Processed by: cddbd v1.5.2PL0 Copyright (c) Steve Scherf et al.
# Submitted via: BonkEnc v1.0.6
# 
DISCID=c70abd0f
DTITLE=Simon Prager - Shuckin' Sugar
DYEAR=2006
DGENRE=Blues
TTITLE0=Shuckin Sugar (Blind Lemon Jefferson)
TTITLE1=I'm Simply Wild About My Good Cocaine (Luke Jordan)
TTITLE2=Cakewalk Into Town (Taj Mahal)
TTITLE3=Jelly Bean Blues (Lena Arant/Ma Rainey)
TTITLE4=Send Me A Man (Alberta Hunter)
TTITLE5=Georgia Rag (Willie McTell)
TTITLE6=Can't Be Bothered With No Sheik (Dickerson/Coleman/Blythe)
TTITLE7=Bless My Soul (Eddie Jefferson)
TTITLE8=Saturday Night Fish Fry (Bill Doggett/Louis Jordan)
TTITLE9=I Need A Little Sugar In My Bowl (Clarence Williams, D Small, Tim Brymn)
TTITLE10=Ain't You Glad (Trad)
TTITLE11=Leavin' Home (Trad Arr. Charlie Poole)
TTITLE12=Me Mother Doesn't Know I'm On The Stage (Billy Bennett)
TTITLE13=All By Myself (Big Bill Broonzy)
TTITLE14=I've Been 'Buked (Trad)
EXTD=with Rob Mason and Masha Vlassova.
EXTT0=
EXTT1=
EXTT2=with Rob Mason
EXTT3=with Masha Vlassova
EXTT4=
EXTT5=
EXTT6=with Masha Vlassova
EXTT7=with Rob Mason
EXTT8=with Rob Mason
EXTT9=with Masha Vlassova
EXTT10=with Rob Mason
EXTT11=
EXTT12=
EXTT13=with Rob Mason
EXTT14=with Rob Mason and Masha Vlassova
PLAYORDER=
